<?xml version="1.0" encoding="utf-8"?>
<!-- Generator: Adobe Illustrator 22.0.1, SVG Export Plug-In . SVG Version: 6.00 Build 0)  -->
<svg version="1.1" id="Layer_1" xmlns="http://www.w3.org/2000/svg" xmlns:xlink="http://www.w3.org/1999/xlink" x="0px" y="0px"
	 viewBox="0 0 1519.2 612" style="enable-background:new 0 0 1519.2 612;" xml:space="preserve">
<style type="text/css">
	.st0{fill:none;stroke:#FFFFFF;stroke-width:12;stroke-miterlimit:10;}
</style>
<path class="st0" d="M888.8,706.8c-8.1-8.1-24-96.9-40.8-122c-26.5-39.4-42.6-45.4-46.7-68.1c-2.1-12-2.3-36.7,11.7-44.6"/>
<path class="st0" d="M1008.9,593.3c-5.5-11.7-24.9-31.8-26.9-54.4c-1.7-19.6,9-25.7,9.1-50c0.1-24.3,0.3-64.5-23.5-80.5
	c-1.9-1.3-11.2-9.3-17.1-6.4c-5.3,2.6-3.1,11.7-8,13.9c-6.6,2.9-14.6-11.7-24.5-9.6c-6.9,1.5-6,9.2-13.9,12.3
	c-9.8,3.9-16.9-6-28.8-4.3c-12.2,1.7-12.7,14.5-19.7,14.4c-10.4-0.2-22-27.5-48-92.7c-1.8-4.6-6.1-15.4-13.9-16.5
	c-4.7-0.7-26.9,7-18.8,31.6c2.2,6.7,42.3,118,71.6,153.9"/>
<path class="st0" d="M805.8,345.8c0,0,0,7.3-6.9,9c-6.9,1.7-14.2-12.4-14.2-12.4l4.1-18C788.9,324.3,802.7,320.5,805.8,345.8z"/>
<path class="st0" d="M683.3,469.5c14,7.9,13.8,32.6,11.7,44.6c-4.1,22.7-20.2,28.7-46.7,68.1c-16.8,25.1-32.7,113.9-40.8,122"/>
<path class="st0" d="M649.8,502.4c29.3-35.9,69.4-147.2,71.6-153.9c8.1-24.6-14.1-32.3-18.8-31.6c-7.8,1.1-12.1,11.9-13.9,16.5
	c-26,65.2-37.6,92.5-48,92.7c-7,0.1-7.5-12.7-19.7-14.4c-11.9-1.7-19,8.2-28.8,4.3c-7.9-3.1-7-10.8-13.9-12.3
	c-9.9-2.1-17.9,12.5-24.5,9.6c-4.9-2.2-2.7-11.3-8-13.9c-5.9-2.9-15.2,5.1-17.1,6.4c-23.8,16-23.6,56.2-23.5,80.5s10.8,30.4,9.1,50
	c-2,22.6-21.4,42.7-26.9,54.4"/>
<path class="st0" d="M707.5,321.8l4.1,18c0,0-7.3,14.1-14.2,12.4c-6.9-1.7-6.9-9-6.9-9C693.6,317.9,707.4,321.7,707.5,321.8z"/>
<path class="st0" d="M1486.1,302.7c-11.4,0.8-88.7-45.8-118.6-49.7c-47.1-6-62.2,2.1-82-9.8c-10.4-6.3-29.1-22.5-25.8-38.2"/>
<path class="st0" d="M1479.9,137.6c-12.4-3.6-40.3-2.2-58.6-15.6c-15.9-11.6-13.4-23.7-31.6-39.8s-48.3-42.7-76-35.4
	c-2.2,0.6-14.4,2.3-16.1,8.6c-1.5,5.7,6.8,10,5.2,15.2c-2.2,6.9-18.4,3.3-23.4,12.1c-3.4,6.2,3,10.6,0.1,18.6
	c-3.5,9.9-15.7,8.8-22.2,18.8c-6.8,10.3,2.5,19.1-2.2,24.3c-7,7.7-35.2-1.6-101.4-25c-4.6-1.7-15.6-5.6-21.6-0.4
	c-3.6,3.1-12.5,24.8,11.4,35c6.5,2.8,116.6,46,162.9,47.6"/>
<path class="st0" d="M1159.9,127.2c0,0,5.5,4.8,2.2,11.1c-3.3,6.3-18.7,2.5-18.7,2.5l-10.8-14.9
	C1132.6,125.8,1138.8,112.9,1159.9,127.2z"/>
<path class="st0" d="M1172.2,300.9c15.2-5.3,33.6,11.1,41.3,20.6c14.4,18,8.3,34.1,20.4,80c7.8,29.2,64.1,99.7,64.9,111.1"/>
<path class="st0" d="M1174.9,347.8c-7.7-45.7-65-149.2-68.6-155.3c-13.2-22.3-33.6-10.7-36.2-6.7c-4.3,6.6,1,16.9,3.2,21.3
	c31.9,62.5,44.8,89.2,38.1,97.2c-4.5,5.3-14.5-2.7-23.8,5.3c-9.1,7.8-6.4,19.7-15.7,24.5c-7.5,3.9-12.7-1.9-18.4,2.3
	c-8.1,6.1-2.4,21.7-8.9,24.8c-4.9,2.2-10.3-5.4-15.7-3.1c-6.1,2.5-6.2,14.8-6.5,17.1c-3.7,28.4,26.7,54.8,45.1,70.7
	s30,11.9,43.6,26.1c15.7,16.4,18,44.2,23.2,56.1"/>
<path class="st0" d="M1077.1,185.4l16.2,8.8c0,0,5.8,14.8,0,18.9c-5.8,4.1-11.3-0.7-11.3-0.7C1065,193.3,1076.9,185.4,1077.1,185.4z
	"/>
<path class="st0" d="M231.1,220.6c3.3,15.7-15.4,31.9-25.8,38.2c-19.8,11.9-34.9,3.7-82,9.8C93.3,272.4,16.1,319,4.6,318.2"/>
<path class="st0" d="M184.3,217.1c46.3-1.6,156.4-44.8,162.9-47.6c23.8-10.1,15-31.9,11.4-35c-6-5.1-16.9-1.3-21.6,0.4
	c-66.2,23.4-94.4,32.7-101.4,25c-4.7-5.2,4.6-14-2.2-24.3c-6.6-10.1-18.7-8.9-22.2-18.8c-2.9-8,3.5-12.4,0.1-18.6
	c-4.9-8.8-21.2-5.2-23.4-12.1c-1.6-5.1,6.7-9.5,5.2-15.2c-1.7-6.3-13.9-8.1-16.1-8.6c-27.7-7.4-57.8,19.3-76,35.4
	s-15.7,28.2-31.6,39.8c-18.3,13.4-46.2,12-58.6,15.6"/>
<path class="st0" d="M358.1,141.4l-10.8,14.9c0,0-15.4,3.8-18.7-2.5c-3.3-6.3,2.2-11.1,2.2-11.1
	C351.9,128.4,358.1,141.3,358.1,141.4z"/>
<path class="st0" d="M191.9,528.1c0.8-11.4,57.1-81.9,64.9-111.1c12.2-45.9,6.1-62,20.4-80c7.6-9.5,26.1-25.9,41.3-20.6"/>
<path class="st0" d="M356.4,543.7c5.2-11.8,7.5-39.7,23.2-56.1c13.6-14.2,25.3-10.2,43.6-26.1c18.3-15.9,48.7-42.3,45.1-70.7
	c-0.3-2.3-0.4-14.6-6.5-17.1c-5.4-2.3-10.8,5.4-15.7,3.1c-6.5-3.1-0.8-18.7-8.9-24.8c-5.7-4.2-10.9,1.6-18.4-2.3
	c-9.4-4.8-6.6-16.7-15.7-24.5c-9.3-8.1-19.3,0-23.8-5.3c-6.7-8,6.2-34.7,38.1-97.2c2.3-4.4,7.6-14.7,3.2-21.3
	c-2.6-4-23-15.6-36.2,6.7c-3.6,6.1-60.9,109.6-68.6,155.3"/>
<path class="st0" d="M408.7,227.8c0,0-5.5,4.8-11.3,0.7c-5.8-4.1,0-18.9,0-18.9l16.2-8.8C413.8,200.9,425.7,208.8,408.7,227.8z"/>
</svg>
