<?xml version="1.0" encoding="utf-8"?>
<!-- Generator: Adobe Illustrator 22.0.1, SVG Export Plug-In . SVG Version: 6.00 Build 0)  -->
<svg version="1.1" id="Layer_1" xmlns="http://www.w3.org/2000/svg" xmlns:xlink="http://www.w3.org/1999/xlink" x="0px" y="0px"
	 viewBox="0 0 467.8 81.6" style="enable-background:new 0 0 467.8 81.6;" xml:space="preserve">
<style type="text/css">
	.st0{fill:none;}
	.st1{fill:#FFFFFF;}
	.st2{font-family:'Futura-Medium';}
	.st3{font-size:36px;}
</style>
<g id="national">
	<circle class="st0" cx="34.9" cy="46.2" r="3.6"/>
	<circle class="st1" cx="35.4" cy="64.8" r="3.6"/>
	<circle class="st1" cx="34.9" cy="46.2" r="3.6"/>
	<circle class="st1" cx="44.7" cy="46.2" r="3.6"/>
	<circle class="st1" cx="44.7" cy="55.5" r="3.6"/>
	<circle class="st1" cx="18.9" cy="65" r="3.6"/>
	<circle class="st1" cx="70.5" cy="64.9" r="3.6"/>
	<circle class="st1" cx="86.8" cy="64.9" r="3.6"/>
	<circle class="st1" cx="96.5" cy="55.7" r="3.6"/>
	<circle class="st1" cx="96.5" cy="46.3" r="3.6"/>
	<circle class="st1" cx="87" cy="46.4" r="3.6"/>
	<circle class="st1" cx="112.6" cy="46.2" r="3.6"/>
	<circle class="st1" cx="138.5" cy="46.2" r="3.6"/>
	<circle class="st1" cx="138.5" cy="55.7" r="3.6"/>
	<circle class="st1" cx="138.5" cy="64.9" r="3.6"/>
</g>
<g id="braille">
	<circle class="st1" cx="199.7" cy="64.9" r="3.6"/>
	<circle class="st1" cx="215.8" cy="55.8" r="3.6"/>
	<circle class="st1" cx="215.8" cy="46.2" r="3.6"/>
	<circle class="st1" cx="241.9" cy="46.2" r="3.6"/>
	<circle class="st1" cx="241.8" cy="55.7" r="3.6"/>
	<circle class="st1" cx="241.8" cy="65.2" r="3.6"/>
	<circle class="st1" cx="251.3" cy="55.6" r="3.6"/>
	<circle class="st1" cx="267.6" cy="46.2" r="3.6"/>
	<circle class="st1" cx="267.6" cy="55.6" r="3.6"/>
	<circle class="st1" cx="267.5" cy="65.1" r="3.6"/>
</g>
<g id="press">
	<circle class="st1" cx="328.6" cy="65.2" r="3.6"/>
	<circle class="st1" cx="345" cy="65" r="3.6"/>
	<circle class="st1" cx="344.9" cy="55.6" r="3.6"/>
	<circle class="st1" cx="344.9" cy="46.4" r="3.6"/>
	<circle class="st1" cx="354.7" cy="46.4" r="3.6"/>
	<circle class="st1" cx="371" cy="46.3" r="3.6"/>
	<circle class="st1" cx="371" cy="55.8" r="3.6"/>
	<circle class="st1" cx="371" cy="65" r="3.6"/>
	<circle class="st1" cx="380.4" cy="55.9" r="3.6"/>
	<circle class="st1" cx="396.7" cy="46.2" r="3.6"/>
	<circle class="st1" cx="406.2" cy="55.7" r="3.6"/>
	<circle class="st1" cx="422.5" cy="55.7" r="3.6"/>
	<circle class="st1" cx="422.6" cy="65.1" r="3.6"/>
	<circle class="st1" cx="431.9" cy="46.4" r="3.6"/>
	<circle class="st1" cx="448.4" cy="55.7" r="3.6"/>
	<circle class="st1" cx="448.4" cy="65.1" r="3.6"/>
	<circle class="st1" cx="457.7" cy="46.4" r="3.6"/>
</g>
<rect x="9.9" y="6.3" class="st0" width="588.1" height="54.2"/>
<text transform="matrix(1 0 0 1 9.8652 36.0239)" class="st1 st2 st3">NATIONAL BRAILLE PRESS</text>
</svg>
